<?xml version="1.0" encoding="UTF-8" standalone="no"?>
<!DOCTYPE svg PUBLIC "-//W3C//DTD SVG 1.1//EN" "http://www.w3.org/Graphics/SVG/1.1/DTD/svg11.dtd">
<svg width="100%" height="100%" viewBox="0 0 1228 1241" version="1.1" xmlns="http://www.w3.org/2000/svg" xmlns:xlink="http://www.w3.org/1999/xlink" xml:space="preserve" xmlns:serif="http://www.serif.com/" style="fill-rule:evenodd;clip-rule:evenodd;stroke-linejoin:round;stroke-miterlimit:2;">
    <g transform="matrix(1,0,0,1,-1140.22,-620.144)">
        <g>
            <g transform="matrix(0.344118,0,0,0.207693,1387.85,1210.86)">
                <path d="M1510.03,-513.199L1733.12,-142.96L171.446,795.326L171.446,671.65C171.446,522.553 225.285,387.922 308.153,329.798C649.139,90.63 1510.03,-513.199 1510.03,-513.199Z" style="fill:rgb(109,40,217);"/>
            </g>
            <g transform="matrix(0.344118,0,0,0.207693,1848.48,1015.86)">
                <path d="M617.639,425.685L617.639,549.361C617.639,698.458 563.801,833.089 480.932,891.213C139.947,1130.38 -720.941,1734.21 -720.941,1734.21L-944.038,1363.18L617.639,425.685Z" style="fill:rgb(109,40,217);"/>
            </g>
            <g transform="matrix(0.344118,0,0,1.03846,1848.48,355.251)">
                <path d="M617.639,425.685L617.639,727.084C617.639,764.773 525.439,795.326 411.704,795.326C294.739,795.326 171.446,795.326 171.446,795.326L171.446,425.685L617.639,425.685Z" style="fill:rgb(109,40,217);"/>
            </g>
            <g transform="matrix(0.344118,0,0,1.03846,1387.85,356.662)">
                <path d="M617.639,425.685L617.639,753.525C617.639,779.177 574.227,802.662 505.266,814.317C373.088,836.655 171.446,870.732 171.446,870.732L171.446,425.685L617.639,425.685Z" style="fill:rgb(109,40,217);"/>
            </g>
            <g transform="matrix(0.344118,0,0,1.03891,1387.85,856.737)">
                <path d="M617.639,425.685L617.639,795.326L171.446,795.326L171.446,493.897C171.446,456.225 263.646,425.685 377.381,425.685L617.639,425.685Z" style="fill:rgb(109,40,217);"/>
            </g>
            <g transform="matrix(0.344118,0,0,1.03891,1848.48,856.737)">
                <path d="M617.639,352.066L617.639,795.326L171.446,795.326L171.446,467.913C171.446,442.04 215.641,418.393 285.561,406.857C417.76,385.045 617.639,352.066 617.639,352.066Z" style="fill:rgb(109,40,217);"/>
            </g>
            <g transform="matrix(1.01648,0,0,1.01372,279.154,32.0171)">
                <path d="M1299.82,1803.41L847.103,1541.33L847.103,842.256L1299.82,580.169L1299.82,754.937L998.045,929.64L998.045,1453.94L1299.82,1628.65L1299.82,1803.41ZM1601.92,580.169L2054.64,842.256L2054.64,1541.33L1601.92,1803.41L1601.92,1628.65L1903.7,1453.94L1903.7,929.64L1601.92,754.937L1601.92,580.169Z" style="fill:rgb(109,40,217);"/>
            </g>
        </g>
    </g>
</svg>
